<svg xmlns="http://www.w3.org/2000/svg" width="256" height="256" viewBox="0 0 256 256" fill="none">
<rect id="color-ffffff" x="0" y="0" width="256" height="256" rx="0.79" fill="#ffffff"/>
<g id="color-1b2b4a">
<path id="color-1b2b4a-1" fill="#1b2b4a" fill-rule="evenodd" d="M227.94 128c0 55.19-44.75 99.93-99.94 99.93c-55.19 0-99.94-44.74-99.94-99.93c0-55.2 44.75-99.94 99.94-99.94c55.19 0 99.94 44.74 99.94 99.94zM202.85 128.01c0-41.33-33.5-74.84-74.84-74.84c-41.33 0-74.84 33.51-74.84 74.84c0 41.33 33.51 74.84 74.84 74.84c41.34 0 74.84-33.51 74.84-74.84z"/>
<path id="color-1b2b4a-2" fill="#1b2b4a" fill-rule="evenodd" d="M130.86 167.85c-1.45 1.46-3.82 1.47-5.29 .02l-37.4-37.08c-1.47-1.46-1.48-3.83-.03-5.29l37.01-37.33c1.45-1.47 3.82-1.48 5.29-.02l37.4 37.08c1.47 1.45 1.48 3.82 .03 5.29z"/>
</g>
<path id="color-e73946" fill="#e73946" fill-rule="evenodd" d="M205.95 128.01c0 43.04-34.9 77.93-77.94 77.93c-43.05 0-77.94-34.89-77.94-77.93c0-43.05 34.89-77.94 77.94-77.94c43.04 0 77.94 34.89 77.94 77.94zM179.85 128.01c0-28.65-23.22-51.87-51.86-51.87c-28.65 0-51.87 23.22-51.87 51.87c0 28.64 23.22 51.86 51.87 51.86c28.64 0 51.86-23.22 51.86-51.86z"/>
</svg>
